HIERARCHY
ROOT root
{
	OFFSET	0	13.1	24.9
	CHANNELS 6  Xposition Yposition Zposition Xrotation Yrotation Zrotation
	JOINT spine_1
	{
		OFFSET	0	9.99999	0
		CHANNELS 3  Xrotation Yrotation Zrotation
		JOINT spine_2
		{
			OFFSET	0	112	-10
			CHANNELS 3  Xrotation Yrotation Zrotation
			JOINT spine_3
			{
				OFFSET	0	206.5	19.3
				CHANNELS 3  Xrotation Yrotation Zrotation
				JOINT spine_4
				{
					OFFSET	0	110.4	14.6
					CHANNELS 3  Xrotation Yrotation Zrotation
					JOINT neck_1
					{
						OFFSET	0	71.8	-50.3
						CHANNELS 3  Xrotation Yrotation Zrotation
						JOINT neck_2
						{
							OFFSET	0	86.2	-25.8
							CHANNELS 3  Xrotation Yrotation Zrotation
							JOINT head_ee
							{
								OFFSET	0	179.8	-8.7
								CHANNELS 3  Xrotation Yrotation Zrotation
								End Site
								{
									OFFSET	1	0	0
								}
							}
						}
					}
					JOINT left_clavicle
					{
						OFFSET	-43.2	22.4	-70.8
						CHANNELS 3  Xrotation Yrotation Zrotation
						JOINT left_shoulder
						{
							OFFSET	-93.9	-5.79999	48.7
							CHANNELS 3  Xrotation Yrotation Zrotation
							JOINT left_elbow
							{
								OFFSET	-291.4	-30.8	15.2
								CHANNELS 3  Xrotation Yrotation Zrotation
								JOINT left_lowarm_twist
								{
									OFFSET	-110.7	-3.89999	13.6
									CHANNELS 3  Xrotation Yrotation Zrotation
									JOINT left_hand
									{
										OFFSET	-110.7	-3.89999	13.6
										CHANNELS 3  Xrotation Yrotation Zrotation
										JOINT left_ee
										{
											OFFSET	-80.8	-5.10001	12.1
											CHANNELS 3  Xrotation Yrotation Zrotation
											End Site
											{
												OFFSET	1	0	0
											}
										}
									}
								}
							}
						}
					}
					JOINT right_clavicle
					{
						OFFSET	43.2	22.4	-70.8
						CHANNELS 3  Xrotation Yrotation Zrotation
						JOINT right_shoulder
						{
							OFFSET	93.9	-5.79999	48.7
							CHANNELS 3  Xrotation Yrotation Zrotation
							JOINT right_elbow
							{
								OFFSET	291.4	-30.8	15.2
								CHANNELS 3  Xrotation Yrotation Zrotation
								JOINT right_lowarm_twist
								{
									OFFSET	110.7	-3.89999	13.6
									CHANNELS 3  Xrotation Yrotation Zrotation
									JOINT right_hand
									{
										OFFSET	110.7	-3.89999	13.6
										CHANNELS 3  Xrotation Yrotation Zrotation
										JOINT right_ee
										{
											OFFSET	80.8	-5.10001	12.1
											CHANNELS 3  Xrotation Yrotation Zrotation
											End Site
											{
												OFFSET	1	0	0
											}
										}
									}
								}
							}
						}
					}
				}
			}
		}
	}
	JOINT left_hip
	{
		OFFSET	-82.8	-127.5	0.300001
		CHANNELS 3  Xrotation Yrotation Zrotation
		JOINT left_knee
		{
			OFFSET	-28.2	-396.7	2.2
			CHANNELS 3  Xrotation Yrotation Zrotation
			JOINT left_ankle
			{
				OFFSET	-11.7	-411.3	35.4
				CHANNELS 3  Xrotation Yrotation Zrotation
				JOINT left_toes
				{
					OFFSET	0	-60	-88.6
					CHANNELS 3  Xrotation Yrotation Zrotation
					JOINT left_foot_ee
					{
						OFFSET	-22.5	-16.5	-42.2
						CHANNELS 3  Xrotation Yrotation Zrotation
						End Site
						{
							OFFSET	1	0	0
						}
					}
				}
			}
		}
	}
	JOINT right_hip
	{
		OFFSET	82.8	-127.5	0.300001
		CHANNELS 3  Xrotation Yrotation Zrotation
		JOINT right_knee
		{
			OFFSET	28.2	-396.7	2.2
			CHANNELS 3  Xrotation Yrotation Zrotation
			JOINT right_ankle
			{
				OFFSET	11.7	-411.3	35.4
				CHANNELS 3  Xrotation Yrotation Zrotation
				JOINT right_toes
				{
					OFFSET	0	-60	-88.6
					CHANNELS 3  Xrotation Yrotation Zrotation
					JOINT right_foot_ee
					{
						OFFSET	22.5	-16.5	-42.2
						CHANNELS 3  Xrotation Yrotation Zrotation
						End Site
						{
							OFFSET	1	0	0
						}
					}
				}
			}
		}
	}
}
MOTION
Frames: 8
Frame Time: 0.02
3177.02 653.055 -1669.29 5.05360475733 63.9885827525 -13.4866696979 -2.24987 0.913616 6.03288 -2.22979 0.528603 6.07856 -2.15105 -0.990106 6.02084 -2.20159 -0.0286422 6.10135 -3.53625 0.478525 -6.69996 -3.37949 6.0507 -6.87187 -0.0 0.0 -0.0 -5.42466 22.4269 -5.03616 -8.42107 -12.1108 73.576 0.22025 -6.22681 0.01198 26.6432 0.157849 -3.36927 -1.2463 28.9309 4.55498 -0.0 0.0 -0.0 13.152 26.9638 -25.9109 25.4035 16.1248 -63.7165 1.9804 44.4465 -0.809192 22.7547 -0.232938 2.87832 2.6173 17.837 -9.90693 0.0 0.0 0.0 19.4425 31.8079 5.54291 5.11101 -0.243955 -0.745933 16.2999 20.6602 -2.3234 -20.1126 0.0 0.0 -0.0 0.0 -0.0 -26.709 5.45353 12.4785 -7.85447 -0.242817 -1.18003 38.3603 12.7082 4.95006 -0.745006 0.0 0.0 0.0 0.0 0.0 
3139.32495297 656.315 -1665.43728999 3.13193388855 63.2894710611 -10.8803063135 -2.09824 0.746909 5.98124 -2.07843 0.365498 6.01647 -2.01928 -1.11991 5.92295 -2.06815 -0.172208 6.02507 -2.53826 0.269756 -6.7411 -2.3764 5.79075 -7.02439 -0.0 0.0 -0.0 -5.03327 21.3055 -4.76765 -5.66608 -12.8148 74.0934 0.312011 -8.78637 0.0239707 26.2731 0.166427 -3.32278 -1.17437 28.9015 4.92952 -0.0 0.0 -0.0 13.0009 27.0871 -25.5469 23.1421 15.777 -63.8005 1.91196 43.4401 -0.761698 22.5311 -0.23624 2.84995 2.51063 16.207 -9.95686 0.0 0.0 0.0 19.0646 31.6512 5.76609 4.20427 -0.195822 -0.615198 16.6892 20.9769 -2.37843 -20.4363 0.0 0.0 -0.0 0.0 -0.0 -26.5882 6.46969 12.8534 -8.51093 -0.255742 -1.27994 37.3771 12.2434 4.84678 -0.486994 0.0 0.0 0.0 0.0 0.0 
3139.33683795 656.315 -1665.32272849 3.15097348131 63.4633680523 -10.9016040901 -2.09824 0.746909 5.98124 -2.07843 0.365498 6.01647 -2.01928 -1.11991 5.92295 -2.06815 -0.172208 6.02507 -2.53826 0.269756 -6.7411 -2.3764 5.79075 -7.02439 -0.0 0.0 -0.0 -5.03327 21.3055 -4.76765 -5.66608 -12.8148 74.0934 0.312011 -8.78637 0.0239707 26.2731 0.166427 -3.32278 -1.17437 28.9015 4.92952 -0.0 0.0 -0.0 13.0009 27.0871 -25.5469 23.1421 15.777 -63.8005 1.91196 43.4401 -0.761698 22.5311 -0.23624 2.84995 2.51063 16.207 -9.95686 0.0 0.0 0.0 19.0646 31.6512 5.76609 4.20427 -0.195822 -0.615198 16.6892 20.9769 -2.37843 -20.4363 0.0 0.0 -0.0 0.0 -0.0 -26.5882 6.46969 12.8534 -8.51093 -0.255742 -1.27994 37.3771 12.2434 4.84678 -0.486994 0.0 0.0 0.0 0.0 0.0 
3139.34765641 656.315 -1665.22128109 3.16805738173 63.6174024287 -10.9206869282 -2.09824 0.746909 5.98124 -2.07843 0.365498 6.01647 -2.01928 -1.11991 5.92295 -2.06815 -0.172208 6.02507 -2.53826 0.269756 -6.7411 -2.3764 5.79075 -7.02439 -0.0 0.0 -0.0 -5.03327 21.3055 -4.76765 -5.66608 -12.8148 74.0934 0.312011 -8.78637 0.0239707 26.2731 0.166427 -3.32278 -1.17437 28.9015 4.92952 -0.0 0.0 -0.0 13.0009 27.0871 -25.5469 23.1421 15.777 -63.8005 1.91196 43.4401 -0.761698 22.5311 -0.23624 2.84995 2.51063 16.207 -9.95686 0.0 0.0 0.0 19.0646 31.6512 5.76609 4.20427 -0.195822 -0.615198 16.6892 20.9769 -2.37843 -20.4363 0.0 0.0 -0.0 0.0 -0.0 -26.5882 6.46969 12.8534 -8.51093 -0.255742 -1.27994 37.3771 12.2434 4.84678 -0.486994 0.0 0.0 0.0 0.0 0.0 
3068.86722673 683.988 -1658.79974416 2.3281862325 61.7359727869 -9.56288952759 -1.92947 0.569012 5.59937 -1.91206 0.212132 5.62413 -1.87432 -1.15868 5.50793 -1.91652 -0.2757 5.62138 -1.98664 0.334649 -6.21629 -1.84471 5.53798 -6.50581 -0.0 0.0 -0.0 -4.16439 19.917 -3.82501 0.0440108 -13.9613 74.1872 0.460017 -12.8375 0.0517519 25.3616 0.186276 -3.20804 -1.23995 28.793 4.53003 -0.0 0.0 -0.0 12.0302 27.5728 -23.2635 15.5906 15.1154 -64.2544 1.78302 41.449 -0.674666 21.1392 -0.254306 2.67308 2.51535 14.1689 -10.9379 0.0 0.0 0.0 14.3081 31.396 7.55085 3.1621 -0.143071 -0.464036 16.1708 21.2224 -2.31156 -21.2505 0.0 0.0 -0.0 0.0 -0.0 -22.6811 9.26325 14.5818 -12.9041 -0.312685 -1.95146 36.4646 10.379 4.71472 -0.617333 0.0 0.0 0.0 0.0 0.0 
3031.54959491 688.669 -1663.53332852 1.59552722494 60.3364619594 -8.28785305531 -1.92688 0.538554 5.1901 -1.91193 0.207661 5.21377 -1.87845 -1.06336 5.10869 -1.91476 -0.244341 5.21219 -1.82363 0.557245 -5.78462 -1.69595 5.60759 -6.03322 -0.0 0.0 -0.0 -3.92204 19.5247 -3.55161 3.61993 -14.6923 73.2383 0.572763 -15.8404 0.079684 24.9475 0.194691 -3.1558 -1.28386 28.6861 4.24727 -0.0 0.0 -0.0 11.3983 28.0701 -21.7692 11.1377 14.981 -64.1378 1.67898 39.7476 -0.606952 20.3759 -0.262385 2.57593 2.51776 13.0754 -11.4574 0.0 0.0 0.0 11.9822 31.2311 8.86102 3.0018 -0.135203 -0.440703 15.8884 21.2928 -2.27433 -21.58 0.0 0.0 -0.0 0.0 -0.0 -20.7933 10.699 14.2423 -15.0641 -0.321766 -2.28272 36.0508 9.54099 4.65658 -0.711998 0.0 0.0 0.0 0.0 0.0 
3031.52937028 688.669 -1664.06939758 1.58528296463 60.1254190735 -8.27605139032 -1.92688 0.538554 5.1901 -1.91193 0.207661 5.21377 -1.87845 -1.06336 5.10869 -1.91476 -0.244341 5.21219 -1.82363 0.557245 -5.78462 -1.69595 5.60759 -6.03322 -0.0 0.0 -0.0 -3.92204 19.5247 -3.55161 3.61993 -14.6923 73.2383 0.572763 -15.8404 0.079684 24.9475 0.194691 -3.1558 -1.28386 28.6861 4.24727 -0.0 0.0 -0.0 11.3983 28.0701 -21.7692 11.1377 14.981 -64.1378 1.67898 39.7476 -0.606952 20.3759 -0.262385 2.57593 2.51776 13.0754 -11.4574 0.0 0.0 0.0 11.9822 31.2311 8.86102 3.0018 -0.135203 -0.440703 15.8884 21.2928 -2.27433 -21.58 0.0 0.0 -0.0 0.0 -0.0 -20.7933 10.699 14.2423 -15.0641 -0.321766 -2.28272 36.0508 9.54099 4.65658 -0.711998 0.0 0.0 0.0 0.0 0.0 
3031.51334577 688.669 -1664.5369379 1.57647351246 59.9413770256 -8.26588254477 -1.92688 0.538554 5.1901 -1.91193 0.207661 5.21377 -1.87845 -1.06336 5.10869 -1.91476 -0.244341 5.21219 -1.82363 0.557245 -5.78462 -1.69595 5.60759 -6.03322 -0.0 0.0 -0.0 -3.92204 19.5247 -3.55161 3.61993 -14.6923 73.2383 0.572763 -15.8404 0.079684 24.9475 0.194691 -3.1558 -1.28386 28.6861 4.24727 -0.0 0.0 -0.0 11.3983 28.0701 -21.7692 11.1377 14.981 -64.1378 1.67898 39.7476 -0.606952 20.3759 -0.262385 2.57593 2.51776 13.0754 -11.4574 0.0 0.0 0.0 11.9822 31.2311 8.86102 3.0018 -0.135203 -0.440703 15.8884 21.2928 -2.27433 -21.58 0.0 0.0 -0.0 0.0 -0.0 -20.7933 10.699 14.2423 -15.0641 -0.321766 -2.28272 36.0508 9.54099 4.65658 -0.711998 0.0 0.0 0.0 0.0 0.0 
